<svg xmlns="http://www.w3.org/2000/svg" xml:space="preserve" width="2048" height="2048" style="shape-rendering:geometricPrecision;text-rendering:geometricPrecision;image-rendering:optimizeQuality;fill-rule:evenodd;clip-rule:evenodd"><defs><style>.fil1{fill:#414141}.fil3{fill:#7e7e7e}</style></defs><g id="Layer_x0020_1"><g id="_426665560"><path id="_426667312" d="M638.482 255.999h771.036c31.182 0 56.693 27.65 56.693 61.406v1413.19c0 33.756-25.527 61.405-56.693 61.405H638.482c-31.166 0-56.693-27.632-56.693-61.405V317.405c0-33.774 25.51-61.406 56.693-61.406z" style="fill:#202020"/><path id="_426667000" class="fil1" d="M962.467 324.861c-14.254 0-25.807 11.555-25.807 25.807 0 14.254 11.554 25.807 25.807 25.807h123.066c14.254 0 25.807-11.553 25.807-25.807 0-14.252-11.554-25.807-25.807-25.807H962.467z"/><path id="_426667024" style="fill:#fffffe" d="M636.875 456.761h774.255V1522.06H636.875z"/><path id="_426666328" class="fil1" d="M1024 1595.53c31.45 0 56.947 25.498 56.947 56.95 0 31.45-25.497 56.946-56.947 56.946-31.45 0-56.948-25.496-56.948-56.947 0-31.451 25.498-56.949 56.948-56.949z"/><path id="_426666472" class="fil3" d="M757.368 1216h64.474v224.001h-64.474z"/><path id="_426666856" style="fill:#727272" d="M874.566 1056h64.474v384h-64.474z"/><path id="_426666400" style="fill:#5f5f5f" d="M991.763 831.999h64.474V1440h-64.474z"/><path id="_426666304" class="fil3" d="M1108.96 1120h64.474v320.001h-64.474z"/><path id="_426666616" style="fill:#8b8c8c" d="M1226.16 895.999h64.474V1440h-64.474z"/></g></g><path style="fill:none" d="M0 0h2048v2048H0z"/></svg>