<svg xmlns="http://www.w3.org/2000/svg" xml:space="preserve" width="2048" height="2048" style="shape-rendering:geometricPrecision;text-rendering:geometricPrecision;image-rendering:optimizeQuality;fill-rule:evenodd;clip-rule:evenodd"><path d="M753 1019c14-44 29-79 44-105 13-23 25-40 36-53 0 42 7 73 16 90 6 11 13 18 22 22 10 5 21 4 32-2 12-7 23-22 31-44 6-15 10-36 13-59s4-50 4-79c0-47 7-95 21-140v-1c13-42 34-83 61-119 7-10 16-20 24-29 3-4 7-7 11-11-1 46 4 124 37 221 24 72 63 154 126 242v1c69 98 90 184 91 251 1 66-16 113-25 132-6 12-12 23-18 34s-13 21-20 30c-19 25-39 47-60 65l-1 1c-19 16-38 29-58 39 15-27 29-62 31-104 2-36-4-77-24-123-51-116-89-197-112-244-15 45-44 112-89 176-36 51-63 108-72 165-6 40-2 80 15 118-11-7-22-14-32-22-23-18-45-39-65-64-19-23-36-51-48-85-11-30-18-65-21-106 0-4 0-7-1-10v-26c0-22 3-48 8-76 5-26 11-54 21-85zm1039-205c0-88-11-172-31-253-19-75-46-146-81-213-28 5-56 10-85 13-37 4-75 6-112 6-84 0-166-10-244-29-75-18-147-45-214-79-68 34-140 60-214 79-78 19-160 29-244 29-37 0-75-2-112-6-29-3-57-7-85-13-34 67-62 138-81 213-20 80-31 165-31 253 0 239 82 458 218 630 137 174 330 299 550 349 220-50 413-175 550-349 136-172 218-391 218-630zm-858 570c7-50 33-99 61-139 16-22 31-46 44-71 19 43 39 85 57 128 13 30 21 62 19 95-2 28-10 54-23 78-24 50-66 91-77 88-8-2-46-46-71-94-12-27-15-56-10-85z" style="fill:#414141"/><path style="fill:none" d="M0 0h2048v2048H0z"/></svg>